<svg width="42" height="42" viewBox="0 0 42 42" fill="none" xmlns="http://www.w3.org/2000/svg">
<circle cx="21" cy="21" r="21" fill="white"/>
<path d="M11.264 27.096C11.1573 27.096 11.0773 27.064 11.024 27C10.9813 26.9253 10.9707 26.824 10.992 26.696L12.672 16.056C12.6933 15.9387 12.736 15.8533 12.8 15.8C12.864 15.7467 12.9493 15.72 13.056 15.72H16.416C17.6 15.72 18.48 15.9867 19.056 16.52C19.6427 17.0427 19.936 17.7627 19.936 18.68C19.936 19.3947 19.76 20.0027 19.408 20.504C19.0667 20.9947 18.5973 21.3627 18 21.608C17.4027 21.8533 16.7253 21.9653 15.968 21.944V21.768H16.096C16.5227 21.768 16.8747 21.896 17.152 22.152C17.44 22.408 17.6747 22.776 17.856 23.256L19.136 26.616C19.1787 26.712 19.1947 26.7973 19.184 26.872C19.184 26.9467 19.1573 27 19.104 27.032C19.0613 27.0747 18.9973 27.096 18.912 27.096C18.8267 27.096 18.7573 27.0747 18.704 27.032C18.6507 26.9893 18.6027 26.9147 18.56 26.808L17.28 23.464C17.0773 22.9307 16.816 22.5573 16.496 22.344C16.176 22.12 15.7013 22.008 15.072 22.008H12.384L11.632 26.76C11.6213 26.8667 11.584 26.9467 11.52 27C11.4667 27.064 11.3813 27.096 11.264 27.096ZM12.496 21.384H16.128C17.0987 21.384 17.856 21.1493 18.4 20.68C18.9547 20.2107 19.232 19.5493 19.232 18.696C19.232 17.9173 19.008 17.3307 18.56 16.936C18.112 16.5413 17.3973 16.344 16.416 16.344H13.296L12.496 21.384ZM25.7488 27.128C25.0448 27.128 24.4314 27.032 23.9088 26.84C23.3861 26.6373 22.9648 26.3387 22.6448 25.944C22.3248 25.5387 22.1114 25.0427 22.0048 24.456C21.8981 23.8587 21.9088 23.1707 22.0368 22.392L23.0608 15.96C23.0821 15.8427 23.1248 15.7573 23.1888 15.704C23.2528 15.6507 23.3381 15.624 23.4448 15.624C23.5514 15.624 23.6261 15.6613 23.6688 15.736C23.7221 15.8 23.7381 15.896 23.7168 16.024L22.6928 22.488C22.4794 23.832 22.6341 24.8347 23.1568 25.496C23.6794 26.1467 24.5434 26.472 25.7488 26.472C26.9541 26.472 27.8981 26.1733 28.5808 25.576C29.2634 24.9787 29.7114 24.0133 29.9248 22.68L30.9968 15.96C31.0181 15.8427 31.0608 15.7573 31.1248 15.704C31.1888 15.6507 31.2741 15.624 31.3808 15.624C31.4874 15.624 31.5621 15.6613 31.6048 15.736C31.6581 15.8 31.6741 15.896 31.6528 16.024L30.5808 22.824C30.4314 23.784 30.1541 24.584 29.7488 25.224C29.3541 25.8533 28.8208 26.328 28.1488 26.648C27.4874 26.968 26.6874 27.128 25.7488 27.128Z" fill="#0E0E0E"/>
</svg>
